<svg id="Layer_1" data-name="Layer 1" xmlns="http://www.w3.org/2000/svg" viewBox="0 0 1284 2778"><defs><style>.cls-1,.cls-3{fill:#4c0013;}.cls-2{fill:#fff;}.cls-3{stroke:#4c0013;stroke-miterlimit:10;}.cls-4{fill:#9a8b8e;}</style></defs><rect class="cls-1" width="1284" height="2778"/><rect class="cls-2" x="341" y="521.86" width="604" height="603"/><path class="cls-3" d="M675.53,1078.16c-3.17-2.55-18.36-14.77-20.39-45.17s14.59-41.4,14.59-41.4a119.22,119.22,0,0,0,29.49-27.5,54.9,54.9,0,0,0,11-35c.44-15.32-21.16-30.25-21.16-30.25-37.63-23.92-22-50.33-22-50.33,16-30.09,71.4-19.58,71.4-19.58-43.61-21.09-52.24-56.74-52.24-56.74s-4-12.58-.82-30.65S709,724.5,709,724.5s31.23-3,28.91-26-28.32-36.44-28.32-36.44S682.37,647.18,682,627.6c-.17-9.86,2.31-16,13.22-23.25,36.66-24.44,117-54.8,126.51-60.1,25.84-14.45,35.7-23.24,35.7-23.24H339.65V797.6s7.22-7.54,9.39-9.66c24.07-23.48,193.12-94.57,193.12-94.57s6.26-5,14.87,3.68L642.22,825s6.61,8.28-.06,14.89L485.88,976s-49.9,47.93-119.2,24.46c-5.31-1.8-27-17.77-27-17.77v143h604.7S715.62,1110.49,675.53,1078.16Z"/><path class="cls-4" d="M465.76,1184.75l-7.95,8c-7.07-7.51-15-10.16-23.85-10.16a29.68,29.68,0,0,0-21.64,8.83,36.56,36.56,0,0,0-11.05,22.53c-1.32,8.84-1.76,28.27-1.76,57.87v12.36h33.57V1293H399.51v153.26H370.8V1293H340.32v-8.84H370.8v-15c0-16.34.44-28.7,1.77-38,1.32-8.83,5.3-18.11,11.48-27.83,6.18-9.27,13.69-16.78,23-22.08,9.27-4.86,20.32-8.84,33.12-7.51C453.39,1175,459.14,1177.68,465.76,1184.75Z"/><path class="cls-4" d="M625.66,1336.25v114.4H597.83v-27.83c-13.25,9.28-25.18,16.35-35.78,20.76-10.6,4.86-20.32,7.07-28.71,7.07-19.87,0-36.22-23.85-36.22-37.54s3.09-21.65,15.9-31.8q19.89-15.24,54.33-29.16l30.48-12.37v-7.94c0-11-.88-19-2.21-23.86-1.77-4.85-5.3-9.27-11.48-13.25-5.75-4-13.69-5.74-23.41-5.74-15.46,0-25.18,3.09-33.57,8.83a89.24,89.24,0,0,0-6.63-6.18c10.6-6.63,24.74-11.48,44.17-11.48q25.18,0,38.43,7.94c9.27,5.31,15.46,11.05,18.11,17.67C624.33,1312.4,625.66,1322.56,625.66,1336.25Zm-27.83,12.81-21.64,8.39q-50.36,20.55-50.36,51.68,0,12.58,6.63,19.88a21.45,21.45,0,0,0,16.78,7.5c6.18,0,13.25-2.2,21.21-6.18s17.22-10.15,27.38-18.11Z"/><path class="cls-4" d="M728.57,1218.32c-4-4-5.74-8.83-5.74-15a21.07,21.07,0,0,1,5.74-14.57c4.42-4,8.84-6.19,14.58-6.19a20,20,0,0,1,14.57,6.19c4,4.41,6.19,9.27,6.19,14.57a20.29,20.29,0,0,1-6.19,15,20,20,0,0,1-14.57,6.18C737.41,1224.5,733,1222.3,728.57,1218.32Zm24.3,59.18h4.41v168.73H729V1277.5Z"/><path class="cls-4" d="M897.3,1303.13c-8.39,7.51-13.25,15.9-15.46,24.29s-3.09,19.87-3.09,34.45v84.36H850V1277.5h26.5v42c9.72-33.13,43.28-47.26,67.14-34.46l-5.74,11.49C922.92,1286.78,911,1290.76,897.3,1303.13Z"/><path class="cls-4" d="M429.54,1501.44H391.43v88.42H378.21v-88.42H340.48l.13-3h88.93Z"/><path class="cls-4" d="M476.56,1556.32H442.89l-12.83,33.54h-4.83l37.86-91.47h2.67l38.88,91.47H490.28l-6.86-16.77Zm-1.14-3-16-38.37-15.63,38.37Z"/><path class="cls-4" d="M583.3,1567.62c-.77,7.5-3.94,13.21-9.41,17.41s-12.32,5.72-20.7,4.83-19.44-7.62-24.4-15.76l2.42-2.66c6.86,9.78,12.07,13.59,21.21,15.11,6.1.89,11.06-.5,14.87-3.68a16.23,16.23,0,0,0,6.22-11.18,14.68,14.68,0,0,0-3.17-11.43q-4-4.77-15.25-11.06a138.89,138.89,0,0,1-15-9.65,24.94,24.94,0,0,1-7.37-9.66,23.55,23.55,0,0,1-1.65-11.81,20.47,20.47,0,0,1,8.13-14.87c4.7-3.68,10.42-5.08,17-4.44a30.42,30.42,0,0,1,10.16,2.92c3.18,1.52,6.22,4.44,9.27,8.51l-2.79,2.29a33,33,0,0,0-2.54-3.31,19.94,19.94,0,0,0-13.72-7.24c-5.21-.63-9.15.39-11.82,2.93a13.71,13.71,0,0,0-4.7,8.89,13.55,13.55,0,0,0,3.56,10.67c2.67,3.18,7.75,6.86,15.24,11.31a148.94,148.94,0,0,1,15.38,9.78,22,22,0,0,1,7.36,9.27A25.33,25.33,0,0,1,583.3,1567.62Z"/><path class="cls-4" d="M685.45,1501.44H647.34v88.42H634.12v-88.42H596.39l.13-3h88.93Z"/><path class="cls-4" d="M727.14,1498.39v91.47H713.93v-91.47Z"/><path class="cls-4" d="M831.7,1498.39v91.47h-2.41l-64.16-84.23v81.94h-2.92v-89.18h13.72l52,69.49v-69.49Z"/><path class="cls-4" d="M930.81,1550.85h12.71v14.49a18.12,18.12,0,0,1-6.48,14.1c-3,2.67-6.61,5.34-9,6.23-7.5,2.79-14.23,4.19-20.58,4.19-12.58,0-23.12-4.19-31.51-12.45s-12.45-18.8-12.45-31.64a50,50,0,0,1,11.94-33.15c8-9.54,18.81-14.23,32.4-14.23,11.69,0,21.47,4.19,29,12.7v.39l-2.93,3a26.57,26.57,0,0,0-4.32-5,28.27,28.27,0,0,0-20.32-8c-8.39,0-15.5,3-21.73,9.28s-9.27,17-9.27,32.77,3,26.68,9,33.29a28.53,28.53,0,0,0,22.1,9.78,26.05,26.05,0,0,0,12.2-2.8c3.68-1.77,6.1-4.06,7.37-6.73s1.9-6,1.9-10Z"/></svg>