<svg id="Layer_1" data-name="Layer 1" xmlns="http://www.w3.org/2000/svg" width="338.71" height="68.74" viewBox="0 0 338.71 68.74"><defs><style>.cls-1{fill:#821d39;}.cls-2{fill:#91868a;}</style></defs><title>fairTasting-logo-v6</title>
<path fill="white" d="M36.27,60.16c-.34-.27-2-1.59-2.2-4.87s1.57-4.47,1.57-4.47a13.08,13.08,0,0,0,3.19-3A6,6,0,0,0,40,44.07c0-1.65-2.29-3.27-2.29-3.27-4.06-2.58-2.38-5.43-2.38-5.43,1.72-3.25,7.71-2.11,7.71-2.11a10.25,10.25,0,0,1-5.64-6.13,7.43,7.43,0,0,1-.09-3.31c.35-1.95,2.55-1.85,2.55-1.85s3.37-.32,3.12-2.8-3.06-3.94-3.06-3.94S37,13.62,37,11.51A2.57,2.57,0,0,1,38.4,9c4-2.64,12.64-5.92,13.66-6.49A24.28,24.28,0,0,0,55.92,0H0V29.87l1-1.05c2.6-2.53,20.86-10.21,20.86-10.21s.67-.54,1.6.4l9.2,13.81a1.23,1.23,0,0,1,0,1.61L15.79,49.13A13.23,13.23,0,0,1,2.92,51.77,26.14,26.14,0,0,1,0,49.86V65.3H65.3S40.6,63.66,36.27,60.16Z"/>
<path fill="white" d="M92,17.38l-1.08,1.08a4.19,4.19,0,0,0-3.24-1.38,4,4,0,0,0-2.94,1.2,5,5,0,0,0-1.5,3.06A72,72,0,0,0,83,29.2v1.68h4.56v1.2H83V52.9h-3.9V32.08H75v-1.2h4.14v-2a38.92,38.92,0,0,1,.24-5.16,9.94,9.94,0,0,1,1.56-3.78,9.3,9.3,0,0,1,3.12-3,7.83,7.83,0,0,1,4.5-1A4.62,4.62,0,0,1,92,17.38Z"/>
<path fill="white" d="M113.71,38V53.5h-3.78V49.72a26.85,26.85,0,0,1-4.86,2.82,9.49,9.49,0,0,1-3.9,1c-2.7,0-4.92-3.24-4.92-5.1a4.71,4.71,0,0,1,2.16-4.32,31.86,31.86,0,0,1,7.38-4l4.14-1.68V37.36a13.31,13.31,0,0,0-.3-3.24,3.62,3.62,0,0,0-1.56-1.8,5.55,5.55,0,0,0-3.18-.78,7.51,7.51,0,0,0-4.56,1.2c-.42-.42-.42-.42-.9-.84a11,11,0,0,1,6-1.56,10.26,10.26,0,0,1,5.22,1.08,5.28,5.28,0,0,1,2.46,2.4A10.38,10.38,0,0,1,113.71,38Zm-3.78,1.74L107,40.84q-6.84,2.79-6.84,7a3.86,3.86,0,0,0,.9,2.7,2.91,2.91,0,0,0,2.28,1,6.67,6.67,0,0,0,2.88-.84,23.12,23.12,0,0,0,3.72-2.46Z"/>
<path fill="white" d="M127.69,21.94a2.71,2.71,0,0,1-.78-2,2.86,2.86,0,0,1,.78-2,2.82,2.82,0,0,1,2-.84,2.72,2.72,0,0,1,2,.84,2.93,2.93,0,0,1,.84,2,2.76,2.76,0,0,1-.84,2,2.72,2.72,0,0,1-2,.84A2.82,2.82,0,0,1,127.69,21.94Zm3.3,8h.6V52.9h-3.84V30Z"/>
<path fill="white" d="M150.61,33.46a6.71,6.71,0,0,0-2.1,3.3,19.43,19.43,0,0,0-.42,4.68V52.9h-3.9V30h3.6v5.7c1.32-4.5,5.88-6.42,9.12-4.68l-.78,1.56C154.09,31.24,152.47,31.78,150.61,33.46Z"/>
<path fill="white" d="M191.29,11.14h-18V52.9h-6.24V11.14H149.23l.06-1.44h42Z"/>
<path fill="white" d="M202.81,38V53.5H199V49.72a26.85,26.85,0,0,1-4.86,2.82,9.49,9.49,0,0,1-3.9,1c-2.7,0-4.92-3.24-4.92-5.1a4.71,4.71,0,0,1,2.16-4.32,31.86,31.86,0,0,1,7.38-4L199,38.44V37.36a13.31,13.31,0,0,0-.3-3.24,3.62,3.62,0,0,0-1.56-1.8,5.55,5.55,0,0,0-3.18-.78,7.51,7.51,0,0,0-4.56,1.2c-.42-.42-.42-.42-.9-.84a11,11,0,0,1,6-1.56,10.26,10.26,0,0,1,5.22,1.08,5.28,5.28,0,0,1,2.46,2.4A10.38,10.38,0,0,1,202.81,38ZM199,39.7l-2.94,1.14q-6.84,2.79-6.84,7a3.86,3.86,0,0,0,.9,2.7,2.91,2.91,0,0,0,2.28,1,6.67,6.67,0,0,0,2.88-.84A23.12,23.12,0,0,0,199,48.28Z"/>
<path fill="white" d="M215.53,50.62c0,.06-.06.06-.12.12v-.06Zm12.66-1.8a6,6,0,0,1-2.7,4.14,6.57,6.57,0,0,1-4.92.84,7.34,7.34,0,0,1-4.68-3.42l1-.6a5.5,5.5,0,0,0,3.9,2.88,3.58,3.58,0,0,0,3.12-.6,4,4,0,0,0,1.5-2.4,3.76,3.76,0,0,0-.48-2.94,16.81,16.81,0,0,0-3.6-3.36,15.32,15.32,0,0,1-4-4,5.24,5.24,0,0,1-.66-4A6.23,6.23,0,0,1,219,31.72a5,5,0,0,1,4.56-1.08,5.73,5.73,0,0,1,4,2.88l-1,.66a4.47,4.47,0,0,0-3.18-2.34,3.33,3.33,0,0,0-4.08,2.46,3.49,3.49,0,0,0,.6,2.64,17.49,17.49,0,0,0,3.48,3.12C226,41.92,227.53,43.6,228,45A8.54,8.54,0,0,1,228.19,48.82Z"/>
<path fill="white" d="M243.31,31.42V24.7h3.78v6.72h6.48v1.2h-6.48v13a20.46,20.46,0,0,0,.24,4.08,2.94,2.94,0,0,0,1.14,1.68,2.83,2.83,0,0,0,1.8.6,3.93,3.93,0,0,0,3.3-2.16l.84.54A5.57,5.57,0,0,1,252,53a6.62,6.62,0,0,1-3.24.9,5,5,0,0,1-3.3-1.14,4.66,4.66,0,0,1-1.8-2.58,26.21,26.21,0,0,1-.36-5.28V32.62h-3.12v-1.2Z"/>
<path fill="white" d="M266.77,21.94a2.71,2.71,0,0,1-.78-2,2.86,2.86,0,0,1,.78-2,2.82,2.82,0,0,1,2-.84,2.72,2.72,0,0,1,2,.84,2.93,2.93,0,0,1,.84,2,2.76,2.76,0,0,1-.84,2,2.72,2.72,0,0,1-2,.84A2.82,2.82,0,0,1,266.77,21.94Zm3.3,8h.6V52.9h-3.84V30Z"/>
<path fill="white" d="M303,45.34V52.9h-3.9V39.22a24,24,0,0,0-.24-4.2,3.44,3.44,0,0,0-1.38-2.22,4.29,4.29,0,0,0-2.88-1,6.68,6.68,0,0,0-3.42,1.08,15.63,15.63,0,0,0-3.54,3.24V52.9h-3.84V30h3.84V34.6a13.07,13.07,0,0,1,3.9-3.48A9,9,0,0,1,296,30a7,7,0,0,1,4.38,1.26,5.16,5.16,0,0,1,2.4,3.66,5.18,5.18,0,0,1,.18,1.74Z"/>
<path fill="white" d="M338.71,60.46a7.13,7.13,0,0,1-3.06,6c-2,1.56-4.92,2.28-8.76,2.28a15.36,15.36,0,0,1-8.46-2,5.89,5.89,0,0,1-3.12-5.1v-.24h2.1c0,2.1,1.38,6.24,9.72,6.24A10.91,10.91,0,0,0,333.55,66a5.06,5.06,0,0,0,2.34-4.26c0-1.86.48-6-8.88-6-4.08,0-7.26,0-8.46-.84a3.69,3.69,0,0,1-1.8-3.12c0-2.46,1.74-4,5.16-4.68a12.54,12.54,0,0,1-4-3.6,8.16,8.16,0,0,1-1.38-4.56,7.74,7.74,0,0,1,2.82-6,9.45,9.45,0,0,1,6.6-2.52c3.12,0,7,1.68,8.28,3.72a9.26,9.26,0,0,1,1.5,4.92,8.55,8.55,0,0,1-2.46,6c-1.62,1.74-4.32,2.7-8.16,2.82-4,.12-5.7,1-6.18,2.34-.3,1-.18,2,1.44,2.28,3.18.66,11.16.42,12.84.84a6.85,6.85,0,0,1,4,2.58A7,7,0,0,1,338.71,60.46ZM322.27,44.92a4.65,4.65,0,0,0,3.84,1.38,4.5,4.5,0,0,0,3.66-1.38c1-1.14,1.56-3.06,1.56-5.82s-.54-4.74-1.68-5.76A4.67,4.67,0,0,0,326,32.08c-1.74,0-3.06.3-3.9,1.62s-1.32,3.24-1.32,5.88C320.77,42,321.25,43.78,322.27,44.92Z"/></svg>