<svg width="159" height="104" viewBox="0 0 159 104" fill="none" xmlns="http://www.w3.org/2000/svg">
<path d="M65.5689 0.00012207C60.6158 0.00012207 56.6005 4.0154 56.6005 8.96849V24.3332C56.6005 24.3332 57.2399 23.6678 57.4333 23.4815C59.5823 21.416 74.5823 15.1611 74.5823 15.1611C74.5823 15.1611 75.1196 14.7246 75.8986 15.4858L83.4631 26.7394C83.6209 26.9217 83.7076 27.154 83.7076 27.3942C83.7076 27.6343 83.6209 27.8666 83.4631 28.0489L69.5859 40.0318C69.5859 40.0318 65.1536 44.2479 58.9967 42.1612C58.1645 41.6917 57.3641 41.1689 56.6005 40.5961V44.2321C56.6005 49.1852 60.6158 53.2005 65.5689 53.2005H100.832C101.919 53.2005 102.96 53.0073 103.924 52.6534C97.6426 52.0169 88.6629 50.8185 86.4234 49.0177C86.1386 48.7941 84.8116 47.7188 84.6128 45.0411C84.414 42.3635 85.9076 41.3999 85.9076 41.3999C86.9127 40.7484 87.7977 39.931 88.524 38.9831C89.1963 38.0989 89.5415 37.0126 89.5018 35.9062C89.5394 34.5594 87.6214 33.2445 87.6214 33.2445C84.2797 31.1152 85.6658 28.8155 85.6658 28.8155C87.0842 26.1538 92.0054 27.0961 92.0054 27.0961C88.1318 25.2382 87.3689 22.1027 87.3689 22.1027C87.1407 21.2199 87.115 20.2977 87.2937 19.4038C87.5785 17.8068 89.389 17.9026 89.389 17.9026C89.389 17.9026 92.1612 17.6418 91.9571 15.6189C91.7529 13.596 89.4427 12.4249 89.4427 12.4249C89.4427 12.4249 87.0305 11.11 86.9982 9.39054C86.9982 8.52283 87.2078 7.98517 88.1748 7.34104C90.4512 5.85219 94.6241 4.10309 97.2167 3.01632C98.3321 2.5488 99.155 2.20386 99.4087 2.05494C100.463 1.5057 101.465 0.863877 102.403 0.137258C101.893 0.0471335 101.368 0.00012207 100.832 0.00012207H65.5689Z" fill="white"/>
<path d="M10.7964 73.0894L10.1974 73.7304C9.95324 73.4625 9.65316 73.2505 9.31799 73.109C8.98282 72.9676 8.62059 72.9001 8.25645 72.9113C7.92936 72.9046 7.60436 72.9644 7.30146 73.0869C6.99856 73.2094 6.72418 73.392 6.49524 73.6236C5.9903 74.1061 5.67229 74.7489 5.59666 75.4399C5.44788 76.9826 5.38388 78.5321 5.40497 80.0816V81.0788H8.1606V81.7911H5.40497V94.1493H3.09262V81.8149H0.612549V81.1026H3.09262V79.9155C3.07204 78.8925 3.12007 77.8693 3.2364 76.8526C3.3876 76.0486 3.70584 75.2846 4.17092 74.6089C4.64392 73.878 5.28427 73.2679 6.03996 72.8282C6.85807 72.3668 7.79736 72.16 8.73569 72.2346C9.12027 72.2274 9.50215 72.2997 9.85697 72.4468C10.2118 72.594 10.5317 72.8128 10.7964 73.0894Z" fill="white"/>
<path d="M23.8318 85.3053V94.5294H21.5794V92.2857C20.6707 92.943 19.6949 93.504 18.668 93.9595C17.941 94.3207 17.1443 94.5231 16.3317 94.5531C14.7142 94.5531 13.3843 92.6299 13.3843 91.5259C13.3463 91.0225 13.4465 90.5184 13.6743 90.0669C13.9022 89.6155 14.2491 89.2335 14.6783 88.9617C16.0398 87.9805 17.5264 87.1821 19.0993 86.5874L21.5794 85.5902V84.9491C21.5991 84.3032 21.5387 83.6573 21.3997 83.026C21.2187 82.5756 20.8894 82.199 20.4651 81.9575C19.8916 81.6169 19.2277 81.4555 18.5601 81.4945C17.596 81.4352 16.6382 81.685 15.8285 82.2068C15.5769 81.9575 15.5769 81.9575 15.2893 81.7082C16.3731 81.0645 17.6207 80.7431 18.8836 80.7822C19.9648 80.7192 21.0435 80.9404 22.0107 81.4233C22.6485 81.722 23.1672 82.2235 23.4844 82.8479C23.7672 83.6352 23.8854 84.4713 23.8318 85.3053ZM21.5794 86.3381L19.7822 87.0147C17.0505 88.1188 15.6847 89.5038 15.6847 91.1697C15.6518 91.7525 15.8447 92.3257 16.2238 92.7724C16.393 92.9653 16.6033 93.1186 16.8395 93.2212C17.0756 93.3239 17.3319 93.3733 17.5897 93.366C18.1955 93.3317 18.7855 93.1612 19.315 92.8674C20.115 92.4624 20.8734 91.9814 21.5794 91.4309V86.3381Z" fill="white"/>
<path d="M32.2066 75.7961C32.0512 75.6402 31.9296 75.4545 31.8492 75.2503C31.7689 75.0462 31.7315 74.8279 31.7393 74.609C31.7336 74.1681 31.9011 73.7424 32.2066 73.4218C32.3632 73.2645 32.5497 73.1394 32.7553 73.0538C32.9609 72.9682 33.1816 72.9239 33.4047 72.9232C33.6282 72.9204 33.8499 72.9633 34.0561 73.0491C34.2622 73.1348 34.4483 73.2617 34.6028 73.4218C34.9176 73.7392 35.0977 74.164 35.106 74.609C35.1074 74.8303 35.0635 75.0495 34.977 75.2536C34.8905 75.4576 34.7632 75.6422 34.6028 75.7961C34.4483 75.9562 34.2622 76.0831 34.0561 76.1689C33.8499 76.2546 33.6282 76.2975 33.4047 76.2947C33.1816 76.2941 32.9609 76.2497 32.7553 76.1641C32.5497 76.0785 32.3632 75.9535 32.2066 75.7961ZM34.1834 80.5447H34.5429V94.1493H32.2425V80.5684L34.1834 80.5447Z" fill="white"/>
<path d="M45.9367 82.6342C45.3304 83.1489 44.8924 83.8308 44.6787 84.593C44.4818 85.5055 44.3973 86.4383 44.4271 87.3709V94.1733H42.0908V80.5686H44.2474V83.952C45.0382 81.2809 47.7698 80.1412 49.7108 81.174L49.2435 82.1C48.0214 81.3165 47.051 81.637 45.9367 82.6342Z" fill="white"/>
<path d="M70.3003 69.3975H59.5173V94.185H55.7852V69.3975H45.1101L45.146 68.5427H70.3062L70.3003 69.3975Z" fill="white"/>
<path d="M77.2073 85.3053V94.5294H74.9429V92.2857C74.0342 92.943 73.0584 93.504 72.0315 93.9595C71.3046 94.3207 70.5078 94.5231 69.6952 94.5531C68.0778 94.5531 66.7479 92.6299 66.7479 91.5259C66.7098 91.0225 66.8101 90.5184 67.0379 90.0669C67.2657 89.6155 67.6126 89.2335 68.0418 88.9617C69.4034 87.9805 70.8899 87.1821 72.4628 86.5874L74.9429 85.5902V84.9491C74.9626 84.3032 74.9022 83.6573 74.7632 83.026C74.5822 82.5756 74.2529 82.199 73.8287 81.9575C73.2551 81.6169 72.5912 81.4555 71.9237 81.4945C70.9596 81.4352 70.0018 81.685 69.192 82.2068C68.9404 81.9575 68.9404 81.9575 68.6528 81.7082C69.7366 81.0645 70.9842 80.7431 72.2472 80.7822C73.3283 80.7192 74.4071 80.9404 75.3742 81.4233C76.012 81.722 76.5308 82.2235 76.8479 82.8479C77.1348 83.6343 77.2571 84.4705 77.2073 85.3053ZM74.9429 86.3381L73.1817 87.0147C70.45 88.1188 69.0842 89.5038 69.0842 91.1697C69.0513 91.7525 69.2441 92.3257 69.6233 92.7724C69.7925 92.9653 70.0027 93.1186 70.2389 93.2212C70.4751 93.3239 70.7314 93.3733 70.9892 93.366C71.595 93.3317 72.185 93.1612 72.7144 92.8674C73.503 92.4529 74.2493 91.9639 74.9429 91.4072V86.3381Z" fill="white"/>
<path d="M84.8273 92.8198C84.8273 92.8554 84.7913 92.8554 84.7554 92.8911V92.8554L84.8273 92.8198ZM92.4112 91.7514C92.3332 92.2513 92.1486 92.729 91.8698 93.1528C91.5909 93.5765 91.2241 93.9365 90.7938 94.2088C89.9158 94.7527 88.8569 94.9318 87.8465 94.7074C87.2646 94.5753 86.7159 94.3272 86.2339 93.9782C85.7519 93.6292 85.3467 93.1866 85.0429 92.6774L85.642 92.3212C85.8737 92.7641 86.2048 93.1485 86.6098 93.4448C87.0148 93.7411 87.4829 93.9416 87.9783 94.0307C88.2964 94.1179 88.6306 94.1311 88.9548 94.0693C89.279 94.0076 89.5844 93.8725 89.8473 93.6746C90.312 93.3241 90.6316 92.8175 90.7459 92.25C90.8205 91.955 90.8334 91.6481 90.784 91.348C90.7345 91.0479 90.6237 90.761 90.4583 90.5049C89.8422 89.7388 89.1155 89.0668 88.3018 88.5105C87.3612 87.8733 86.5486 87.0682 85.9055 86.1362C85.6838 85.7863 85.5346 85.3961 85.4667 84.9885C85.3989 84.5808 85.4136 84.1639 85.5102 83.7619C85.6899 82.8998 86.1743 82.1294 86.876 81.5894C87.2438 81.2696 87.6852 81.0439 88.1614 80.9322C88.6376 80.8204 89.1341 80.826 89.6077 80.9484C90.1103 81.0387 90.5862 81.239 91.0008 81.5348C91.4153 81.8305 91.758 82.2142 92.0039 82.6579L91.4048 83.0496C91.2158 82.689 90.9458 82.3763 90.6155 82.1355C90.2852 81.8946 89.9035 81.7322 89.4999 81.6607C89.2425 81.5943 88.9744 81.5796 88.7112 81.6174C88.4481 81.6553 88.1952 81.7448 87.9675 81.8809C87.7398 82.0169 87.5418 82.1967 87.3852 82.4096C87.2287 82.6226 87.1166 82.8644 87.0557 83.1209C87.0073 83.3926 87.0141 83.6712 87.0758 83.9403C87.1376 84.2094 87.2529 84.4636 87.4152 84.6879C88.0233 85.3948 88.7245 86.0177 89.4999 86.5398C91.0813 87.6439 92.0159 88.6411 92.2675 89.4602C92.4916 90.203 92.5408 90.9868 92.4112 91.7514Z" fill="white"/>
<path d="M101.469 81.4231V77.4343H103.733V81.4231H107.615V82.1354H103.733V89.8518C103.7 90.6618 103.748 91.4731 103.877 92.2736C103.978 92.6758 104.22 93.0293 104.56 93.2708C104.867 93.5089 105.248 93.6347 105.638 93.627C106.053 93.6048 106.454 93.4746 106.801 93.2494C107.148 93.0243 107.429 92.7122 107.615 92.3448L108.118 92.6654C107.819 93.3165 107.315 93.8539 106.681 94.1968C106.091 94.5374 105.422 94.7214 104.74 94.731C104.02 94.7481 103.318 94.5079 102.763 94.0543C102.235 93.6831 101.854 93.1418 101.685 92.5229C101.506 91.4881 101.434 90.4381 101.469 89.3889V82.1354H99.5999V81.4231H101.469Z" fill="white"/>
<path d="M115.523 75.7961C115.367 75.6402 115.246 75.4545 115.165 75.2503C115.085 75.0462 115.048 74.8279 115.055 74.609C115.05 74.1681 115.217 73.7424 115.523 73.4218C115.679 73.2645 115.866 73.1394 116.071 73.0538C116.277 72.9682 116.498 72.9239 116.721 72.9232C116.944 72.9204 117.166 72.9633 117.372 73.0491C117.578 73.1348 117.764 73.2617 117.919 73.4218C118.234 73.7392 118.414 74.164 118.422 74.609C118.424 74.8303 118.38 75.0495 118.293 75.2536C118.207 75.4576 118.079 75.6422 117.919 75.7961C117.764 75.9562 117.578 76.0831 117.372 76.1689C117.166 76.2546 116.944 76.2975 116.721 76.2947C116.498 76.2941 116.277 76.2497 116.071 76.1641C115.866 76.0785 115.679 75.9535 115.523 75.7961ZM117.5 80.5447H117.859V94.1493H115.559V80.5684L117.5 80.5447Z" fill="white"/>
<path d="M137.196 89.6857V94.1732H134.86V86.0531C134.886 85.2195 134.838 84.3853 134.716 83.5601C134.626 83.0302 134.329 82.5567 133.89 82.2424C133.407 81.8419 132.793 81.6307 132.164 81.6488C131.435 81.6743 130.727 81.8959 130.116 82.2898C129.315 82.8193 128.602 83.468 128.001 84.213V94.1494H125.695V80.5685H127.995V83.3108C128.622 82.4707 129.418 81.7676 130.331 81.2452C131.153 80.7909 132.08 80.5576 133.021 80.5685C133.955 80.5208 134.879 80.784 135.645 81.3164C136.142 81.6892 136.542 82.1749 136.811 82.7326C137.08 83.2904 137.21 83.9039 137.19 84.5217L137.196 89.6857Z" fill="white"/>
<path d="M158.613 98.6605C158.627 99.3579 158.467 100.048 158.147 100.669C157.827 101.291 157.358 101.824 156.779 102.222C155.581 103.148 153.832 103.575 151.532 103.575C149.762 103.671 148.002 103.259 146.464 102.388C145.908 102.095 145.441 101.659 145.113 101.127C144.784 100.595 144.605 99.9849 144.595 99.3609V99.2185H145.853C145.853 100.465 146.679 102.922 151.676 102.922C153.027 103.004 154.371 102.668 155.521 101.961C155.951 101.69 156.304 101.316 156.549 100.874C156.794 100.432 156.923 99.9364 156.923 99.4322C156.923 98.3281 157.211 95.8708 151.604 95.8708C149.16 95.8708 147.255 95.8707 146.536 95.3721C146.211 95.1805 145.942 94.9096 145.753 94.5854C145.564 94.2612 145.462 93.8945 145.457 93.5202C145.457 92.06 146.5 91.1459 148.548 90.7423C147.603 90.2102 146.786 89.4811 146.152 88.6054C145.611 87.8048 145.323 86.8624 145.326 85.8988C145.323 85.2182 145.474 84.5457 145.766 83.9297C146.058 83.3138 146.485 82.7699 147.015 82.3373C148.088 81.351 149.505 80.8149 150.969 80.8415C152.838 80.8415 155.162 81.8387 155.929 83.0496C156.501 83.9195 156.812 84.932 156.827 85.97C156.827 87.3028 156.298 88.5821 155.354 89.5314C154.383 90.5642 152.766 91.1341 150.465 91.2053C148.069 91.2765 147.051 91.7989 146.763 92.5942C146.584 93.1878 146.655 93.7814 147.626 93.9476C149.531 94.3393 154.311 94.1969 155.318 94.4462C156.276 94.6564 157.126 95.1997 157.714 95.9776C158.321 96.7404 158.639 97.6896 158.613 98.6605ZM148.764 89.4364C149.059 89.7373 149.42 89.9674 149.819 90.1094C150.217 90.2513 150.643 90.3013 151.064 90.2556C151.469 90.2913 151.876 90.2362 152.255 90.0944C152.635 89.9526 152.977 89.7276 153.257 89.4364C153.856 88.7598 154.192 87.6201 154.192 85.9819C154.192 84.3436 153.868 83.1683 153.185 82.5629C152.895 82.2901 152.549 82.0823 152.171 81.9532C151.793 81.8242 151.391 81.7771 150.993 81.815C149.95 81.815 149.16 81.9931 148.656 82.7766C148.153 83.5601 147.866 84.6997 147.866 86.2668C147.866 87.6913 148.153 88.7598 148.764 89.4364Z" fill="white"/>
</svg>
